<svg width="80" height="80" viewBox="0 0 80 80" fill="none" xmlns="http://www.w3.org/2000/svg">
<rect x="0.269531" y="0.203613" width="79.4656" height="79.4656" rx="7.94656" fill="white"/>
<g clip-path="url(#clip0_1476_2033)">
<path d="M40.0029 39.9365C40.0029 35.5924 43.5245 32.0708 47.8686 32.0708C52.2126 32.0708 55.7342 35.5924 55.7342 39.9365C55.7342 44.2806 52.2126 47.8021 47.8686 47.8021C43.5245 47.8021 40.0029 44.2806 40.0029 39.9365Z" fill="#1ABCFE"/>
<path d="M24.2712 55.6679C24.2712 51.3239 27.7928 47.8022 32.1369 47.8022H40.0025V55.6679C40.0025 60.012 36.481 63.5336 32.1369 63.5336C27.7928 63.5336 24.2712 60.012 24.2712 55.6679Z" fill="#0ACF83"/>
<path d="M40.0029 16.3403V32.0716H47.8686C52.2127 32.0716 55.7342 28.5501 55.7342 24.206C55.7342 19.8619 52.2127 16.3403 47.8686 16.3403H40.0029Z" fill="#FF7262"/>
<path d="M24.2712 24.206C24.2712 28.5501 27.7928 32.0716 32.1369 32.0716H40.0025V16.3403H32.1369C27.7928 16.3403 24.2712 19.8619 24.2712 24.206Z" fill="#F24E1E"/>
<path d="M24.2712 39.9365C24.2712 44.2806 27.7928 47.8021 32.1369 47.8021H40.0025V32.0708H32.1369C27.7928 32.0708 24.2712 35.5924 24.2712 39.9365Z" fill="#A259FF"/>
</g>
<defs>
<clipPath id="clip0_1476_2033">
<rect width="31.7862" height="47.6793" fill="white" transform="translate(24.1094 16.0977)"/>
</clipPath>
</defs>
</svg>
