<svg width="132" height="161" viewBox="0 0 132 161" fill="none" xmlns="http://www.w3.org/2000/svg">
<path d="M55.3729 76.9853C55.0967 76.2091 55.0705 75.6057 54.7702 75.203C46.6479 57.491 37.3551 40.7248 25.0482 26.165C19.4702 19.5757 13.1709 14.048 6.64794 8.95071C4.97338 7.59731 3.24842 6.01399 1.64839 4.51709C1.09825 3.94148 0.497709 3.13595 0.221571 2.35976C0.120768 1.89992 0.243565 1.00958 0.592104 0.665499C0.940646 0.321422 1.71439 0.466531 2.0892 0.725795C18.4075 12.7938 33.0093 27.1856 43.8035 45.9656C49.3134 55.6287 54.6239 65.3489 59.1124 75.6709C59.5639 76.7634 60.3156 78.2587 61.1398 78.6337C71.8537 83.5091 80.3798 91.9426 87.7858 101.552C99.2948 116.34 110.181 131.673 121.342 146.805C122.067 147.697 122.843 148.819 124.167 149.539C122.791 136.494 121.216 123.506 119.79 110.231C121.76 110.034 122.611 111.012 123.238 112.421C123.915 114.06 124.717 115.785 125.12 117.624C127.138 127.798 129.156 137.971 130.975 148.202C131.354 150.415 131.334 152.742 131.19 154.982C130.775 159.377 127.985 161.153 124.438 159.48C117.545 156.077 110.851 152.617 104.106 148.927C102.083 147.918 101.406 146.279 101.976 144.527C102.596 143.006 104.142 142.319 106.239 143.185C109.86 144.715 113.332 146.531 117.328 148.32C116.927 147.457 116.826 146.997 116.526 146.595C104.942 131.95 93.4335 117.162 81.576 102.718C78.0735 98.3446 73.6745 94.7165 69.6744 90.9743C68.0744 89.4774 66.0513 88.4681 63.8025 86.9125C64.0303 88.4355 64.2824 89.5851 64.484 90.5048C66.4957 97.7481 67.8346 105.306 67.9262 112.977C67.9411 119.814 66.8075 126.247 63.5521 132.188C62.3837 134.11 61.1407 136.176 59.5975 137.84C52.8525 145.268 43.3965 145.163 36.3192 137.537C27.392 128.241 21.0607 108.062 29.9061 91.3586C34.8254 81.8876 42.4251 77.3917 51.9798 76.9788C53.0275 76.9234 54.2002 76.9543 55.3729 76.9853ZM59.9794 129.911C62.6868 124.372 63.8225 118.916 63.7352 113.199C63.865 104.121 61.9498 95.3838 59.3616 86.9615C58.8335 85.0357 57.709 84.2579 56.1112 83.7378C47.6482 81.3948 37.9289 86.3751 33.7812 95.0144C28.1933 106.754 30.5771 124.397 39.1799 133.664C44.907 139.967 51.9673 139.779 57.4672 133.44C58.4624 132.178 59.4072 130.686 59.9794 129.911Z" fill="white"/>
</svg>
