<svg width="80" height="80" viewBox="0 0 80 80" fill="none" xmlns="http://www.w3.org/2000/svg">
<rect x="0.090332" y="0.187012" width="79.4656" height="79.4656" rx="7.94656" fill="white"/>
<g clip-path="url(#clip0_1476_2021)">
<mask id="mask0_1476_2021" style="mask-type:luminance" maskUnits="userSpaceOnUse" x="4" y="4" width="72" height="72">
<path d="M4.06299 4.15971H75.582V75.6787H4.06299V4.15971Z" fill="white"/>
</mask>
<g mask="url(#mask0_1476_2021)">
<path d="M61.1552 28.5244C63.0374 31.9587 64.1085 35.8999 64.1085 40.0923C64.1085 48.9882 59.2875 56.7548 52.1189 60.9344L59.4836 39.6405C60.8592 36.2005 61.3173 33.4499 61.3173 31.004C61.3173 30.1163 61.2588 29.2924 61.1552 28.5244ZM43.3192 28.7869C44.7708 28.7106 46.0789 28.5579 46.0789 28.5579C47.3782 28.4041 47.2249 26.4946 45.9251 26.5707C45.9251 26.5707 42.0194 26.8772 39.498 26.8772C37.1288 26.8772 33.1476 26.5707 33.1476 26.5707C31.8472 26.4946 31.6948 28.481 32.9946 28.5579C32.9946 28.5579 34.2246 28.7106 35.5239 28.7869L39.2803 39.0803L34.0027 54.9061L25.2223 28.7869C26.6751 28.7106 27.9818 28.5579 27.9818 28.5579C29.2802 28.4041 29.1269 26.4946 27.8277 26.5707C27.8277 26.5707 23.9228 26.8772 21.4012 26.8772C20.9488 26.8772 20.4155 26.8661 19.8493 26.848C24.1609 20.3023 31.5716 15.9796 39.9961 15.9796C46.2733 15.9796 51.9892 18.3798 56.2789 22.3105C56.175 22.3042 56.0737 22.2912 55.9667 22.2912C53.5981 22.2912 51.9174 24.3545 51.9174 26.5707C51.9174 28.5579 53.0639 30.2392 54.286 32.2261C55.203 33.8321 56.2741 35.8951 56.2741 38.8762C56.2741 40.9398 55.4803 43.3348 54.4393 46.6712L52.0334 54.7072L43.3192 28.7869ZM39.9961 64.207C37.6292 64.207 35.3448 63.8599 33.1839 63.2245L40.4195 42.2016L47.8308 62.5076C47.8797 62.6268 47.9395 62.7366 48.0034 62.8399C45.4971 63.7223 42.8041 64.207 39.9961 64.207ZM15.8834 40.0923C15.8834 36.5964 16.6332 33.2779 17.9714 30.2792L29.4737 61.7935C21.4293 57.8855 15.8834 49.6367 15.8834 40.0923ZM39.9961 13.2735C25.2078 13.2735 13.1768 25.3043 13.1768 40.0923C13.1768 54.8809 25.2078 66.9131 39.9961 66.9131C54.7841 66.9131 66.8157 54.8809 66.8157 40.0923C66.8157 25.3043 54.7841 13.2735 39.9961 13.2735Z" fill="#3F3C3C"/>
</g>
</g>
<defs>
<clipPath id="clip0_1476_2021">
<rect width="71.519" height="71.519" fill="white" transform="translate(4.06299 4.16064)"/>
</clipPath>
</defs>
</svg>
